<svg xmlns="http://www.w3.org/2000/svg" xmlns:xlink="http://www.w3.org/1999/xlink" xmlns:inkscape="http://www.inkscape.org/namespaces/inkscape" version="1.1" width="612" height="792" viewBox="0 0 612 792">
<defs>
<clipPath id="clip_1">
<path transform="matrix(1,0,0,-1,0,792)" d="M34.9795 742.734H217.6445V755.09317H34.9795Z" clip-rule="evenodd"/>
</clipPath>
<clipPath id="clip_2">
<path transform="matrix(1,0,0,-1,34.9795,49.26599)" d="M0 0H182.708V12.375H0Z" clip-rule="evenodd"/>
</clipPath>
<clipPath id="clip_3">
<path transform="matrix(1,0,0,-1,34.9795,49.26599)" d="M182.708 12.375H0V0H182.708Z"/>
</clipPath>
<clipPath id="clip_4">
<path transform="matrix(1,0,0,-1,0,792)" d="M0 0H612V792H0Z" clip-rule="evenodd"/>
</clipPath>
</defs>
<path transform="matrix(1,0,0,-1,0,792)" d="M378.822 667.332H388.346Z" fill="#3c65ad" fill-rule="evenodd"/>
<path transform="matrix(1,0,0,-1,0,792)" d="M507.515 641.31H545.499Z" fill="#3c65ad" fill-rule="evenodd"/>
<path transform="matrix(1,0,0,-1,0,792)" d="M422.079 602.306H431.603Z" fill="#3c65ad" fill-rule="evenodd"/>
<path transform="matrix(1,0,0,-1,0,792)" d="M392.712 524.296H421.795Z" fill="#3c65ad" fill-rule="evenodd"/>
<path transform="matrix(1,0,0,-1,0,792)" d="M355.691 413.631H360.454Z" fill="#3c65ad" fill-rule="evenodd"/>
<path transform="matrix(1,0,0,-1,0,792)" d="M386.135 309.6H395.66Z" fill="#3c65ad" fill-rule="evenodd"/>
<path transform="matrix(1,0,0,-1,0,792)" d="M520.611 296.617H525.373Z" fill="#3c65ad" fill-rule="evenodd"/>
<path transform="matrix(1,0,0,-1,0,792)" d="M385.569 244.63H411.987Z" fill="#3c65ad" fill-rule="evenodd"/>
<path transform="matrix(1,0,0,-1,0,792)" d="M548.107 205.625H560.75Z" fill="#3c65ad" fill-rule="evenodd"/>
<path transform="matrix(1,0,0,-1,0,792)" d="M200.013 192.643H211.408Z" fill="#3c65ad" fill-rule="evenodd"/>
<path transform="matrix(1,0,0,-1,0,792)" d="M386.872 107.943H396.397Z" fill="#3c65ad" fill-rule="evenodd"/>
<path transform="matrix(1,0,0,-1,0,792)" d="M400.819 107.943H410.343Z" fill="#3c65ad" fill-rule="evenodd"/>
<path transform="matrix(1,0,0,-1,0,792)" d="M522.709 94.9039H532.233Z" fill="#3c65ad" fill-rule="evenodd"/>
<text xml:space="preserve" transform="matrix(10 0 -0 10 200.012 84.586)" font-size="1" font-family="MinionPro-Regular"><tspan y="0" x="0 .818 1.241 1.674 2.034 2.5609999 2.932 3.355 3.9401 4.3631 4.8691 5.2401 5.6110999 6.0340998 6.2800996 6.7130997 7.0110995 7.277099 7.783099 8.3310999 8.9177 9.4237 9.846701 10.144701 10.827701 11.250701 11.673701 12.4496 12.747601 13.274601 13.918 14.278 14.544 15.007999 15.556 15.988999 16.234999 16.8206 17.326601 17.8354 18.1334 18.8164 19.5419 19.974902 20.345902 20.768902 21.201903 21.561903 22.0137 22.446702 22.994702 23.7428 24.0088 24.7803 25.2963 25.667302 25.933302 26.481303 26.904303 27.170304 27.686305 27.932305 28.578701 28.844702 29.366702 29.632702 30.217103 30.765103 31.271103 31.787503 32.147504 32.674505 32.940504 33.238504 33.661504 34.412305 34.710306">measurescorrelationsbetweenthesignalsoftwoareas,andinprincipleitisnotsuitedto</tspan><tspan y="1.3039" x=".0000038146974 .81800386 1.3240039 1.8510039 2.274004 2.7439039 3.176904 3.599904 3.8979042 4.163904 4.617904 4.883904 5.181904 5.862004 6.378004 6.749004 7.255004 7.7710039 8.204003 8.668003 9.101003 9.399003 9.665003 10.171003 10.719004 11.174104 12.075503 12.571504 12.994504 13.674204 13.972204 14.3432049 14.776204 15.042204 15.562104 16.068104 16.576905 17.144906 18.028204 18.576205 18.999205 19.297205 19.980206 20.486207 20.857207 21.353207 21.940005 22.206006 22.784705 23.082705 23.609705 24.042706 24.564805 24.862805 25.389805 25.812806 26.486704 26.919705 27.290705 27.938004 28.371005 28.731005 29.185006 30.003006 30.821007 31.244008 31.542008 31.913008 32.17901 32.60201 33.057405 33.480405 33.986406 34.534406 34.832406 35.203405 35.636404 36.0074 36.685705 36.983705">modelactivitypropagation.AkeytraitofECnetworksisthattheyareasymmetric,contraryto</tspan><tspan y="2.6021" x=".0000038146974 .5270038 1.4116038 1.9596038 2.382604 2.680604 3.363604 3.869604 4.240604 4.7366039 5.3177039 5.656704 6.016704 6.470704 7.288704 8.106704 8.529704 8.827704 9.198705 9.4647049 10.119604 10.625605 11.298804 11.825805 12.248805 12.535805 12.801805 13.349805 13.615805 13.913805 14.179805 14.685804 15.233805 15.805804 16.238804 16.786805 17.535004 18.010004 18.895604 19.443604 19.866604 20.164605 20.847605 21.353606 21.724606 22.220606 22.801703 23.140704 23.500704 23.954705 24.772706 25.590706 26.013707 26.311707 26.682707 26.948708 27.603604 28.130604 28.657605 29.298705 29.596705 30.324805 30.570805 30.836806 31.654807 31.920807 32.218809 32.651807 32.949808 33.215806 33.721807 34.269807 34.860204 35.366205 35.875005 36.402006 36.668004 36.955">FCnetworks(symmetricbydefinition)andSCnetworks(symmetricduetolimitationsofdif-</tspan><tspan y="3.9004" x=".0000038146974 .28700383 .8140038 1.1740038 1.4400039 1.9460039 2.715504 3.606504 4.227504 4.566504 4.905504 5.3574039 6.019404 6.525404 7.073404 7.433404 7.699404 8.059403 8.357404 8.780404 9.328404 9.626405 9.872405 10.556104 11.239103 11.505103 11.803103 12.551703 13.057703 13.355703 13.882704 14.305704 14.898804 15.581803 16.087803 16.458804 16.954804 17.540604">fusionMRI).Consistentlywithotherworks[</tspan></text>
<text fill="#3c65ad" xml:space="preserve" transform="matrix(10 0 -0 10 200.012 84.586)" font-size="1" font-family="MinionPro-Regular"><tspan y="3.9004" x="17.879605 18.354605">23</tspan></text>
<text xml:space="preserve" transform="matrix(10 0 -0 10 200.012 84.586)" font-size="1" font-family="MinionPro-Regular"><tspan y="3.9004" x="18.829606 19.168606 19.615605 20.298605 20.942204 21.448204 21.954205 22.314206 22.737206 23.108206 23.562207 23.985207 24.740605 25.100605 25.627606 26.133606 26.493607 26.791607 27.224608 27.772608 28.070609 28.336609 28.76961 29.242005 29.675005 30.035006 30.489006 31.307007 32.125009 32.548009 32.84601 33.217008 33.483007 33.906007 34.497407 34.763406 35.534807 36.102807">],weobservedsubstantialasymmetriesinEC</tspan><tspan y="5.1987" x=".0000038146974 .42300383 .92900386 1.4770038 2.025004 2.448004 2.871004 3.1690043 3.4350043 3.9410043 4.489004 4.8490045 5.300704 6.264704 6.910804 7.270804 7.797804 8.303804 8.986804 9.409804 10.159304 10.457304 10.984304 11.417304 11.939404 12.372403 12.732403 13.186403 14.004403 14.822403 15.245403 15.543404 15.914404 16.180405 16.603405 17.194804 17.627804 17.998805 18.640503 18.906504 19.724505 20.240506 20.746506 21.117506 21.415507 21.848507 22.396508 22.920804 23.207804 23.713805 24.309704 24.732705 25.238705 25.786705 26.084706 26.455706 26.961707 27.207707 27.654604 28.087605 28.669404 28.935404 29.483405 29.906405 30.412405 31.230406 31.496407 32.044408 32.739904 33.1729 33.7209 34.469 34.975004 35.502004 35.800004 36.264005 36.770006">connections.Weshowedthatasymmetriesareimportantforcontrol,asincomingandoutgo-</tspan><tspan y="6.5025999" x="0 .266 .814 1.5023 1.9253 2.4313002 2.9793003 3.5273004 3.9503005 4.3733007 4.6713006 4.9373 5.4433004 5.9913 6.3513004 6.8030998 7.2360999 7.7840998 8.5322 8.9552 9.461201 9.832201 10.203201 10.626202 10.986201 11.502201 12.008202 12.556202 13.083202 13.349202 13.8972029 14.361202 14.607203 15.2899 15.5559 16.103899 16.6789 17.1119 17.6599 18.407999 18.914 19.441 19.739 20.089 20.616002 21.143002 21.649003 22.009003 22.461499 22.977499 23.2235 23.6565 24.332398 24.984398 25.511399 25.7774 26.0644 26.3514 26.7744 27.145401 27.568402 28.116402 28.640999 29.012 29.518 29.764 30.4098">ingconnections,andcorrespondinglyin-andout-hubs,playadifferentrole(</tspan></text>
<text fill="#3c65ad" xml:space="preserve" transform="matrix(10 0 -0 10 200.012 84.586)" font-size="1" font-family="MinionPro-Regular"><tspan y="6.5025999" x="30.7488 31.2238 31.698801 32.0378 32.7208 33.2841 33.8111 34.0771">S3(A)Fig</tspan></text>
<text xml:space="preserve" transform="matrix(10 0 -0 10 200.012 84.586)" font-size="1" font-family="MinionPro-Regular"><tspan y="6.5025999" x="34.5411 34.8801 35.3308 35.9408 36.4678 36.7338">).This</tspan><tspan y="7.8008" x="0 .527 .793 1.0799999 1.3669999 1.7899999 2.1609998 2.5839999 3.132 3.555 3.9780002 4.5637 4.9867 5.4197 5.9677 6.5157 7.0217 7.5457 8.051701 8.6966 9.2236 9.646601 9.944601 10.367601 10.790602 11.088602 11.511602 12.2625 12.945499 13.211499 13.5095 14.2581 14.691099 15.459999 15.934999 16.597 17.1721 17.6781 18.2663 18.7933 19.455302 19.805302 20.311303 20.744303 21.104304 21.527304 22.2801 22.7131 23.2611 23.694102 23.940102 24.394103 24.754103 25.020104 25.380105 25.8347 26.1737 26.9459 27.2329 27.759902 28.057902 28.584902 28.955903 29.5991 30.2821 30.788102 31.159102 31.655102 32.1049 32.3709 32.8873 33.153299 33.737699 34.160699 34.5837 34.954698 35.252698 35.685697 35.951696 36.499696 36.745695">differencescannotbedetectedwithanSC-orFC-basedanalysis.Infuturework,itiscertainly</tspan><tspan y="9.0991" x="-.0000038146974 .5059962 1.0146963 1.2806963 1.8286963 2.1266964 2.5496965 2.9206966 3.3436967 3.7036968 4.2234966 4.5214965 5.2496969 5.6726968 6.1786968 6.9966967 7.5126965 7.9456965 8.316696 8.968697 9.443697 10.105697 10.675197 11.108196 11.656197 12.404297 12.972297 13.634296 13.984297 14.490297 14.923297 15.283297 15.706297 16.463498 16.979498 17.350499 17.773499 18.300499 18.5665 18.9895 19.2875 19.553502 20.059502 20.607502 21.197297 21.703297 22.212096 22.645096 23.068097 23.366097 23.632098 24.086098 24.352099 24.650099 25.330195 25.846196 26.217196 26.723196 27.239197 27.672198 28.136198 28.569199 28.867199 29.1332 29.6392 30.415495 30.702496 31.208497 31.454497 31.700497 32.206499 32.889497 33.155496 33.703496 34.395296 34.943296 35.366296 35.893297 36.264295 36.770296">ofinteresttocompareSC-andEC-basedpredictionsofactivitypropagationfollowingneuro-</tspan><tspan y="10.403" x="-.0000076293949 .8179924 1.3239925 1.8509925 2.3779925 2.6239925 3.0569926 3.3549927 3.6209927 4.1269929 4.9038927 5.1698925 5.935693 6.5932929 7.203293 8.094293 8.569293 8.919293 9.487293 10.055293 10.998293 11.421293 11.885293 12.401293 12.824293 13.195293 13.461293 14.279293 14.702293 15.250294 15.771793 16.110795 16.769595 17.140595 17.563595 17.986596 18.409596 18.957596 19.479495 19.839495 20.137495 20.664496 21.191496 21.866295">modulationinaTMS-EEGexperiment(arecentstudy[</tspan></text>
<text fill="#3c65ad" xml:space="preserve" transform="matrix(10 0 -0 10 200.012 84.586)" font-size="1" font-family="MinionPro-Regular"><tspan y="10.403" x="22.205296 22.680296">66</tspan></text>
<text xml:space="preserve" transform="matrix(10 0 -0 10 200.012 84.586)" font-size="1" font-family="MinionPro-Regular"><tspan y="10.403" x="23.155297 23.720095 24.143095 24.649096 25.467097 25.983098 26.416098 26.787098 27.210099 27.960696 28.435696 29.097697 29.672795 30.105795 30.653796 31.401995 31.928996 32.590997 33.165098 33.671098 34.104097 34.464097 34.887098 35.636899 36.152898 36.523897 36.946897">]comparedSC-andFC-basedpre-</tspan><tspan y="11.7013" x="-.0000038146974 .5269962 .79299619 1.2159962 1.5139961 1.7799962 2.2859963 2.8339964 3.282396 3.7883962 4.3153965 4.8357965 5.3627965 6.2474968 6.6704967 7.1034967 7.6514966 8.199496 8.705496 9.229497 9.662497 10.189497 10.612497 11.118498 11.645498 12.078498 12.376498 12.799499 13.045499 13.725197 14.241197 14.612197 15.035197 15.562198 15.8281979 16.251198 16.775298 17.291298 17.662299 18.168299 18.6843 19.1173 19.5813 20.014302 20.312302 20.578303 21.084303 21.860598 22.376599 22.809599 23.1076 23.4056 23.8286 24.1996 24.7476 25.107602 25.446602 25.897099 26.5071 27.235098 27.658099 28.206099 28.5661 29.0931 29.4641 30.109398 30.407399 30.934399 31.3674 31.889498 32.395498 32.922498 33.516599 34.0846 34.746599 35.096597 35.602598 36.035596 36.395597 36.818597">diction,butFCcannotadequatelypredictpropagationpatterns).ToensurethatourEC-based</tspan><tspan y="12.999599" x="-.0000038146974 .3599962 .7829962 1.3099961 1.7329961 2.550996 3.1973963 3.4633964 4.0477964 4.595796 5.101796 5.6181967 5.9781968 6.4011967 6.9491965 7.3091967 7.5751965 7.873196 8.139196 8.593197 9.246496 9.544497 10.266996 10.626996 11.444996 11.8779959 12.123996 12.596996 13.019997 13.390997 13.761997 14.267998 14.638998 15.221896 15.487896 16.259396 16.827397 17.710696 18.133696 18.493697 18.791697 19.057698 19.875699 20.308699 20.606699 21.0297 21.3897 21.843596 22.526597 23.170195 23.686196 24.109196 24.480196 24.767197 25.273198 25.644198 26.462199 26.885199 27.637595 28.295195 28.655196 29.078196 29.626196 29.986197 30.252198 30.550198 30.816199 31.270199 31.5362 31.8342 32.513097 32.946096 33.494096 33.927095 34.17309 34.62709 34.98709 35.25309 35.61309 36.067796 36.594797 37.100797">schemeisnotsensitivetosmallerrorsinECestimates,weperformedasensitivityanalysis.For</tspan><tspan y="14.303499" x="-.0000038146974 .4229962 .8559962 1.2789962 2.0294963 2.3894964 2.9164963 3.4224964 3.6784964 4.101496 4.524496 5.045596 5.311596 5.859596 6.3865959 6.8095958 7.325596 7.7485959 8.296596 8.823596 9.246596 9.794597 10.092597 10.338597 10.792598 11.247796 11.930796 12.574396 13.007396 13.534396 14.061397 14.484397 15.233196 15.604197 16.037198 16.585198 17.112198 17.618199 18.663096 19.377097 19.810097 20.337098 20.697098 21.057099 21.3231 21.7561 22.529595 23.077595 23.583596 23.849596 24.209597 24.859595 25.219595 25.948094 26.381094 26.962893 27.260893 27.983393 28.499394 28.922394 29.293395 29.591395 30.118395 30.489396 31.220494 31.643494 32.076494 32.499494 33.25009 33.67309 33.96009 34.24709 34.67009 35.09309 35.39109 35.65709 36.111089">eachsubjectindependently,weaddedrandomGaussiannoisesoastoperturbeacheffective</tspan><tspan y="15.601699" x="-.0000076293949 .42299239 .9289924 1.4769924 2.0249925 2.4479926 2.8709927 3.1689928 3.4349929 3.9409929 4.7167928 5.3997929 5.6657927 5.9637925 6.7122929 7.3642928 7.7352926 8.158293 8.404293 8.837293 9.135293 9.401293 9.855293 10.505093 10.928093 11.299093 11.670094 12.176094">connectionwitharelativeerror</tspan></text>
<text xml:space="preserve" transform="matrix(10 0 -0 10 200.012 84.586)" font-size="1" font-family="Minion Pro" font-style="italic"><tspan y="15.601699" x="12.767093">f</tspan></text>
<text xml:space="preserve" transform="matrix(10 0 -0 10 200.012 84.586)" font-size="1" font-family="MinionPro-Regular"><tspan y="15.601699" x="13.254693 13.781693 14.518893 14.816894 15.544993 16.019993 16.494994 17.250994 17.699395 18.226395 18.732396 19.326395 19.749396 20.182396 20.605397 21.355996 21.809996 22.242997 22.488997 23.015997 23.657795 24.163796">upto25%.Foreachvalueof</tspan></text>
<text xml:space="preserve" transform="matrix(10 0 -0 10 200.012 84.586)" font-size="1" font-family="Minion Pro" font-style="italic"><tspan y="15.601699" x="24.678196">f</tspan></text>
<text xml:space="preserve" transform="matrix(10 0 -0 10 200.012 84.586)" font-size="1" font-family="MinionPro-Regular"><tspan y="15.601699" x="24.945197 25.386897 26.069897 26.713496 27.146496 27.506497 27.866497 28.289498 28.649498 29.009499 29.432499 30.188696 30.486697 31.013697 31.657097 31.944098 32.315099 32.748098 33.171098 33.469099 33.735097 34.241098 35.013299 35.5193">,weassessedthefractionof</tspan><tspan y="16.9" x="-.0000038146974 .2979962 .8039962 1.3199962 1.6699963 2.1449962 2.8401962 3.2111963 3.6441963 4.1921966 4.688196 4.954196 5.502196 6.196396 6.7443959 7.250396 7.7773959 8.200396 8.781596 9.120596 9.553596 9.976596 10.399596 10.905596 11.276596 11.8035969 12.069596 12.617597 13.311396 13.609396 14.337496 14.697495 15.120496 15.574496 15.997497 16.368496 16.801497 17.268496 17.691496 18.114497 18.662497 18.960497 19.331498 19.764498 20.010499 20.276499 20.5745 21.253996 22.071997 22.494997 22.927998 23.287999 23.814999 24.185999 24.609 24.969 25.534296 25.894297 26.421298 26.854298 27.225298 27.648299 28.402897 28.908898 29.331898 29.629899 30.312899 30.735899 31.1589 31.929198 32.227197 32.754198 33.3975 33.9245 34.4725 34.9885 35.4115 35.782499">top-10rankingnodes(accordingtoseveralcentralitymeasures)sharedbetweentheunper-</tspan><tspan y="18.2039" x="0 .298 .82500007 1.1960001 1.7020002 2.1250003 2.8743 3.3073 3.8553003 4.6034 5.1194 5.5424 5.9133999 6.2113997 6.7383997 7.1093995 7.6153995 8.0384 8.793 9.216001 9.649 10.009 10.432 10.8793 11.5003 11.923301 12.2833 12.810301 13.056301 13.354301 13.9406 14.3736 14.7446 15.3863 15.7463 16.2733 16.7793 17.462302 18.2379 18.5039">turbedandperturbedcase.Resultsareshownin</tspan></text>
<text fill="#3c65ad" xml:space="preserve" transform="matrix(10 0 -0 10 200.012 84.586)" font-size="1" font-family="MinionPro-Regular"><tspan y="18.2039" x="19.2697 19.7447 20.2197 20.919499 21.446499 21.7125">S10Fig</tspan></text>
<text xml:space="preserve" transform="matrix(10 0 -0 10 200.012 84.586)" font-size="1" font-family="MinionPro-Regular"><tspan y="18.2039" x="22.1765 22.625899 23.235899 23.7629 24.406098 24.766098 25.189099 25.709998 26.215998 26.724797 27.230797 27.746798 28.044798 28.310799 29.1288 29.5618 30.035696 30.583697 31.089697 31.616698 32.039697 32.620798 32.886796 33.471197 33.925195 34.348196 34.719194">.Thesetofoptimalnodesisvery</tspan><tspan y="19.5022" x="-.0000038146974 .3709962 .8769963 1.3829963 1.9099963 2.2699962 2.7891963 3.4721964 3.7381964 4.036196 4.7904965 5.161496 5.584496 5.944496 6.460496 6.883496 7.3064959 7.8291966 8.127196 8.849696 9.209696 10.027696 10.460695 10.706696 11.179696 11.633697 12.066696 12.437696 12.703696 13.136696 13.434696 13.700696 14.206696 14.754696 15.340996 15.846996 16.355795 16.653796 17.180796 17.824095 18.247096 18.534096 18.821097 19.244097 19.667098 19.965098 20.231099 20.685099 21.338995 21.761996 22.267996 22.815997 23.363997 23.786997 24.209998 24.507998 24.773999 25.227999 25.494 25.792 26.469696 26.892697 27.252697 27.550698 27.816699 28.634699 29.0677 29.3657 29.7887 30.1487 30.602597 31.348597 32.116296 32.549295 33.003293 33.426294 33.79729 34.23029 34.69429 35.342096 35.681097 36.187097 36.641096 37.064096">robustwithrespecttosmallvariationsoftheeffectiveconnectivityestimates.Onaverage(over</tspan><tspan y="20.8004" x="-.0000038146974 .3599962 .8869962 1.3929963 1.6489964 2.0719965 2.4949966 2.7929967 3.1529966 3.7189964 4.0169966 4.5439965 5.1872966 5.4742968 5.8452966 6.2782967 6.7012965 6.999296 7.265296 7.771296 8.543496 9.049496 9.558296 9.856297 10.362297 10.878297 11.228297 11.599298 12.032297 12.580297 13.076298 13.342298 13.890298 14.581296 15.129296 15.635296 16.162297 16.585297 17.172097 17.532097 17.830098 18.263098 18.717099 19.298096 19.731097 20.237097 20.743098 21.197098 21.843596 22.318596 22.793597 23.776797 24.115797 24.402798 24.908799 25.500296 26.006297 26.533297 27.053597 27.413598 27.711598 28.082598 28.505599 29.053599 29.5176 29.8156 30.3426 30.6816 31.135497 31.568497 32.074499 32.580499 33.034498 33.680997 34.155996 34.630994 35.608499 35.9475 36.234498 36.740499">subjects)thefractionoftop-rankingnodesstaysabove90%(foroutstrength),above85%(for</tspan><tspan y="22.0987" x="-.0000038146974 .3709962 .8039962 1.1019962 1.3679962 2.0975962 2.624596 3.0475963 3.5115963 3.8825963 4.3055965 4.949196 5.3721959 5.7951958 6.3431956 6.6411955 7.012195 7.445195 7.691195 7.957195 8.255195 8.709195 9.048195 9.501596 9.934596 10.440596 10.946596 11.400597 12.047096 12.522097 12.997097 13.974696 14.313696 14.600696 15.106695 15.703796 16.219798 16.945397 17.368397 17.791398 18.339398 18.637398 19.008399 19.441399 19.687399 19.9534 20.2514 20.7054 21.044402 21.497797 22.107798 22.634799 23.277897 23.793898 24.525097 24.948098 25.371098 25.919098 26.217099 26.588099 27.0211 27.2671 27.5331 27.8311 28.510598 28.776598 29.360997 30.178997 30.684998 31.055998 31.702397 31.989398 32.360399 32.793397 33.257398 33.523397 33.769395 34.192396">ratiodegreecentrality),above40%(forpqcentrality).Thepqcentralityismorefragile,</tspan><tspan y="23.4026" x="-.0000038146974 .5059962 .9289962 1.3519962 1.7849962 2.3119963 2.671996 3.3164962 3.7494963 4.2764966 4.8034965 5.069496 5.617496 6.3097965 7.0237967 7.4567968 7.9837968 8.343797 8.703796 8.969796 9.402796 10.176296 10.724297 11.230297 11.496297 11.856297 12.506296 13.033297 13.466296 14.048396 14.346396 14.873397 15.516696 15.939696 16.226696 16.513697 16.936697 17.359698 17.880797 18.386797 18.895596 19.411597 19.834597 20.205597 20.503598 21.030598 21.401598 21.907599 22.1736 22.7216 23.413996 23.711997 24.238997 24.882296 25.242297 25.758297 26.181298 26.604298 26.902298 27.273299 27.706299 28.176196 28.692196 29.063197 29.569197 30.085198 30.508198 30.879199 31.177199 31.4432 31.8662 32.456396 32.962396">becauseaddingGaussiannoisehastheeffectofperturbingthespectralpropertiesof</tspan></text>
<text xml:space="preserve" transform="matrix(10 0 -0 10 200.012 84.586)" font-size="1" font-family="Minion Pro" font-style="italic"><tspan y="23.4026" x="33.471197">A</tspan></text>
<text xml:space="preserve" transform="matrix(10 0 -0 10 200.012 84.586)" font-size="1" font-family="MinionPro-Regular"><tspan y="23.4026" x="34.131196 34.576696 34.999696 35.370695 35.793695 36.226694 36.524694">,creat-</tspan><tspan y="24.7009" x="-.0000038146974 .2659962 .8139962 1.5022962 1.7482963 2.1812964 2.5522965 3.0162965 3.6622964 4.085296 4.351296 4.815296 5.238296 5.786296 6.240296 6.673296 6.919296 7.4462959 7.8692958 8.452797 9.135797 9.662797 9.928797 10.351797 11.105997 11.465997 11.763997 12.134997 12.640997 13.188997 13.652997 13.898997 14.575597 15.102597 15.368597 15.728597 16.026597 16.532597 16.903597 17.427197 17.725197 18.252198 18.895596 19.255597 19.771597 20.194598 20.617598 20.915598 21.286599 21.719599 22.195096 22.711096 23.082097 23.588097 24.104098 24.527098 24.898098 25.196099 25.4621 25.8851 26.469696 26.975697 27.484496 27.782496 28.309496 28.952795 29.666796 30.037796 30.470797 31.288798 31.554799 31.987799 32.535799">inglargeeigenvalueswhichstronglydistortthespectralpropertiesoftheGramian.</tspan></text>
<text xml:space="preserve" transform="matrix(11.9999 0 -0 11.9999 200.012 360.284)" font-size="1" font-family="MinionPro-Bold" font-weight="bold"><tspan y="0" x="0 .37170003 1.2114 1.7601001 2.1628 2.6275 3.0512002 3.3909002 3.6786 4.1023 4.5670006 5.0947005 5.3824007 5.6601006 5.9478008 6.287501 6.9732 7.4898998 8.041 8.7247 9.2734 9.7901 10.0678009 10.5015 10.8412 11.3689 11.771601 12.2363 12.524 13.2993 13.723001 14.2397 14.7984 15.1381 15.5408 16.0575">Impracticabilityofwhole-braincontrol</tspan></text>
<text xml:space="preserve" transform="matrix(10 0 -0 10 200.012 377.291)" font-size="1" font-family="MinionPro-Regular"><tspan y="0" x="0 .579 1.012 1.372 1.795 2.5454 3.0514 3.8209999 4.494 4.927 5.173 5.9909999 6.424 6.9719998 7.186 7.7725 8.1955 8.566501 8.8325 9.130501 9.553501 9.924501 10.190501 10.696501 11.244501 11.6956009 12.4096 13.1583 13.581301 14.0994009 14.5324 14.7784 15.2276">BasedonKalman&#x2019;scriterion,Guetal.[</tspan></text>
<text fill="#3c65ad" xml:space="preserve" transform="matrix(10 0 -0 10 200.012 377.291)" font-size="1" font-family="MinionPro-Regular"><tspan y="0" x="15.5666">5</tspan></text>
<text xml:space="preserve" transform="matrix(10 0 -0 10 200.012 377.291)" font-size="1" font-family="MinionPro-Regular"><tspan y="0" x="16.0416 16.5995 17.105502 17.476502 17.742503 18.206503 18.472504 19.020504 19.453505 19.699505 19.945506 20.630402 21.063403 21.434403 21.898404 22.425404 22.848404 23.6011 23.899102 24.426102 24.859103 25.375502 25.673502 26.200503 26.843903 27.526904 28.053904 28.559905 28.805905 29.457404 29.963404 30.334404 30.767405 31.033406 31.804503 32.2275 32.7335 33.2605 33.5065 34.2536 34.7596 35.404504 35.827505 36.333505 36.881505">]originallyarguedthatthewholebraincouldbecon-</tspan><tspan y="1.2982" x=".0000038146974 .29800383 .66900387 1.1750039 1.4210039 1.667004 2.090004 2.8402038 3.3462039 4.0195038 4.4525039 4.8755037 5.1735036 5.439503 5.987503 6.6783039 7.1843039 7.9539039 8.605904 8.965903 9.231903 9.779903 10.243903 10.489903 11.140003 11.667004 12.038004 12.304004 12.758004 13.181005 13.776203 14.3242039 14.830204 15.357204 15.780205 16.225403 16.991404 17.497405 18.180405 18.603405 19.057406 19.480406 19.851407 20.301604 20.974604 21.407605 21.653605 22.471606 22.904606 23.452607 23.666607 24.253005 24.676005 25.047005 25.313006 25.611006 26.034007 26.405007 26.671008 27.177008 27.955004 28.482005 28.988005 29.411005 29.990303 30.538304 31.044304 31.566403 31.989403 32.537405 32.897405 33.424406 33.795404 34.440706 34.956705 35.3277 35.7607 36.1837 36.4817 36.7477">trolledbyactingonasingledrivernode.However,Kalman&#x2019;scriteriondoesnotensurepracti-</tspan><tspan y="2.6021" x=".0000038146974 .42300383 .8560038 1.3209038 1.7439038 2.2499037 2.7979038 3.0959039 3.466904 3.972904 4.218904 4.464904 4.897904 5.403904 5.6699039 5.9159038 6.1819036 6.479903 6.933903 7.392704 8.002704 8.529704 9.172804 9.418804 9.851804 10.149804 10.447804 10.870805 11.463203 11.834204 12.257204 12.763205 13.290205 13.556205 13.927205 14.350205 14.938403 15.590404 15.961404 16.384404 16.817404 17.177405 17.683405 18.231406 18.664406 19.170407 19.416407 20.097504 20.343504 20.849505 21.752903 22.268904 22.774905 23.457905 23.880906 24.479804 24.985804 25.494603 25.792603 26.319603 26.962903 27.385903 27.891903 28.439904 28.737904 29.108904 29.614905 30.086703 30.446703 30.712704 31.176705 31.724705 32.157705 32.4037 32.853303 33.1193 33.3443 33.7673 33.9923 34.4407">calcontrollability.Thelatterrequiresareasonablylowpowerofthecontrolsignal,i.e.,a</tspan><tspan y="3.9004" x="0 .37100003 .794 1.227 1.587 2.093 2.641 3.0740002 3.5800002 3.8260003 4.507 4.753 5.259 6.1624004 6.5854 7.0914 7.6394 7.9374 8.3084 8.8144 9.286201 9.709201 10.257201 10.680202 11.051202 11.515202 11.969202 12.415601 13.108601 13.531601 13.902601 14.581301 14.827301 15.260301 15.631301 16.0953 16.7413 17.195302 17.628302 17.874302 18.401303 18.824303 19.4058 19.9118 20.4263 20.7243 21.2513 21.8946 22.3176 22.8236 23.371602 23.669602 24.040602 24.546603 25.0127 25.4357 25.9837 26.4067 26.7777 27.241702 27.921 28.354 28.725 29.3724 29.888401 30.259402 30.765402 31.271403 31.517403 31.940403 32.758405 33.191404 33.489404 33.7554 34.4067 34.6937 35.1997 35.79 36.088 36.615">reasonablylowcontrolenergy.Verylargevaluesofthecontrolenergyareproblematicforthe</tspan><tspan y="5.1987" x="0 .287 .79300007 1.039 1.2850001 1.7910001 2.4740003 2.7400003 3.2880004 3.9798 4.3508 4.7738 5.2068 5.5668 6.0728 6.6208 6.9808 7.4266998 7.6926996 8.254399 8.822399 9.286399 9.802399 10.225399 10.596399 10.862399 11.680399 12.103399 12.6514 12.9494 13.3824 13.6284 13.8744 14.328401 14.785399 15.2084 15.714399 16.2624 16.5604 16.9314 17.4374 17.9091 18.2691 18.5351 18.999102 19.547102 19.980103 20.226103 20.8118 21.2448 21.6158 22.2631 22.6231 23.1501 23.656102 23.912102 24.335103 24.758103 25.056103 25.479104 26.2316 26.5296 27.2521 27.7581 28.191102 28.739102 29.266102 29.949103 30.215104 30.742104 31.040104 31.7988 32.2318 32.7798 33.5279 34.0439 34.5499 35.2329 35.6559">followingreasons:i)Experimentally,controlsignalsaresubjectedtobandwidthandpower</tspan><tspan y="6.5025999" x="0 .423 .929 1.477 1.837 2.135 2.506 2.9390002 3.2050002 3.7530003 4.051 4.4110004 4.8642 5.1302 5.3961999 5.9583 6.6203005 7.1263005 7.6743 7.9723 8.3433 8.8493 9.3202 9.6182 9.989201 10.4222 10.6782 11.1012 11.5242 11.822201 12.328201 12.699202 12.965201 13.388202 13.9747 14.4807 14.9037 15.3267 15.832701 16.650702 17.2968 17.823801 18.089802 18.553803 19.080803 19.326804 20.006802 20.554802 21.060803 21.608803 21.958804 22.204804 22.710804 23.133805 23.566805 24.037602 24.470602 25.018603 25.7667 26.189702 26.653702 26.951703 27.322703 27.745703 28.563704 28.986704 29.232705 29.916602 30.162602 30.668602 31.216603 31.680603 32.1276 32.5606 33.1086 33.6356 34.0835 34.5065 35.0125 35.5605 35.9205 36.343503">constraints;ii)Controltrajectoriesbecomehighlynon-localandextremelylong,and,conse-</tspan><tspan y="7.8008" x="0 .50600007 1.033 1.456 2.004 2.302 2.548 3.002 3.4525 4.0005 4.5275 5.3455 5.7685 6.1394999 6.4054996 6.8284995 7.2614996 7.507499 7.753499 8.4301 8.957101 9.505101 9.865101 10.163101 10.596101 11.1021 11.348101 11.771101 12.2229 12.5829 13.4009 13.8338999 14.0799 14.5529 15.100901 15.627901 16.445902 16.868903 17.239903 17.505904 17.928904 18.361905 18.8332 19.2562 19.627202 19.998202 20.504202 20.875203 21.458102 21.724102 22.495602 22.793602 23.320603 23.963902 24.677903 25.048903 25.481904 26.299904 26.565905 26.998906">quently,numericallyunstable:smallnumericalerrorsintheGramian</tspan></text>
<text xml:space="preserve" transform="matrix(10 0 -0 10 200.012 377.291)" font-size="1" font-family="Minion Pro" font-style="italic"><tspan y="7.8008" x="27.773602">W</tspan></text>
<text xml:space="preserve" transform="matrix(10 0 -0 10 200.012 377.291)" font-size="1" font-family="MinionPro-Regular"><tspan y="7.8008" x="28.941502 29.280503 29.786503 30.296502 31.114502 31.547503 32.0115 32.5595 32.8255 33.1235 33.6505 34.1775 34.826204 35.249204 35.755205 36.573205">(ofmagnitudecom-</tspan><tspan y="9.0991" x=".0000038146974 .51600387 .9490038 1.3200039 1.7530038 2.2590039 2.505004 3.152104 3.450104 4.178204 4.996204 5.429204 5.852204 6.379204 6.6452038 7.1932036 7.840504 8.356504 8.727505 9.150505 9.573505 9.839505 10.199505 10.465505 10.971504 11.519505 12.086804 12.352804 13.170804 13.686804 13.932804 14.615305 15.069305 15.492306 15.863306 16.537205 16.783205 17.216206 17.587206 18.051207 18.697205 19.224205 19.647206 20.101206 20.367207 20.800208 21.098208 21.364209 21.870209 22.41821 23.005805 23.271805 24.043305 24.341305 24.868306 25.511605 25.798605 26.064606 26.612607 27.045607 27.512804 27.872805 28.170805 28.603806 28.901806 29.324807 29.774905 30.207905 30.755906 31.504004 31.802004 32.329004 32.856004 33.4429 33.7089 34.2252 34.4912 35.0756 35.6236 36.1296">parabletomachineprecision)implyverylargedeviationsinthefinalstate,andthusitisnot</tspan><tspan y="10.403" x="0 .51600006 .8870001 1.32 1.743 2.0410002 2.3070002 2.7400003 3.1630004 3.4090005 3.6550005 4.3369 4.8529007 5.3589007 5.7189009 6.078901 6.3449008 6.8509008 7.0969007 7.7442 8.0422 8.7703 9.1413 9.564301 9.9973 10.4203009 11.1684 11.4664 11.993401 12.6424 13.1694 13.592401 13.9524 14.2184 14.5894 15.012401 15.7605 16.0585 16.4915 16.862502 17.326502 17.749503 18.272">practiacllypossibletoreachthedesiredtarget[</tspan></text>
<text fill="#3c65ad" xml:space="preserve" transform="matrix(10 0 -0 10 200.012 377.291)" font-size="1" font-family="MinionPro-Regular"><tspan y="10.403" x="18.611 19.086">21</tspan></text>
<text xml:space="preserve" transform="matrix(10 0 -0 10 200.012 377.291)" font-size="1" font-family="MinionPro-Regular"><tspan y="10.403" x="19.561 19.900002 20.346899 20.6129 20.8789 21.144902 21.707499 22.4425 22.9695 23.7875 24.2105 24.581501 24.847502 25.270503 25.703503 26.1806 26.4466 26.9946 27.3546 27.652602 28.085602 28.591603 28.857604 29.103604 29.369605 29.667605 29.933606 30.356606 30.948399 31.371399 31.8044 32.569799 33.075799 33.7207 34.1437 34.6077 35.0407 35.4637 35.8867 36.257699">];iii)Numericalinstabilitiescanbeexacer-</tspan><tspan y="11.7013" x="0 .50600007 .939 1.237 1.66 2.4094 2.9154 3.5886002 4.1366 4.6426 4.9086 5.2686 5.9187 6.3517005 6.8997 7.6478006 8.4658 8.9718 9.4988 9.921801 10.391701 10.657701 11.205701 11.6387009 12.061701 12.484701 13.011702 13.382702 13.8157019 14.238702 14.504702 14.927702 15.287702 15.743501 16.2705 16.7765 17.199501 17.726502 18.086503 18.352503 18.900504 19.5872 20.0932 20.8628 21.337801 22.2234 22.6464 23.152401 23.700402 23.998402 24.369402 24.875403 25.121403 25.367403 25.800404 26.306405 26.572405 26.818406 27.084406 27.382407 27.836407 28.289502 28.899502 29.650202 30.073203 30.591301 31.024302 31.270302 31.7194">batedbynoiseandmodelinaccuracies.FocusingonSCcontrollability,Tuetal.[</tspan></text>
<text fill="#3c65ad" xml:space="preserve" transform="matrix(10 0 -0 10 200.012 377.291)" font-size="1" font-family="MinionPro-Regular"><tspan y="11.7013" x="32.0584">6</tspan></text>
<text xml:space="preserve" transform="matrix(10 0 -0 10 200.012 377.291)" font-size="1" font-family="MinionPro-Regular"><tspan y="11.7013" x="32.533399 33.0914 33.4514 33.9784 34.4844 35.1674 35.5904">]showed</tspan><tspan y="12.999599" x="0 .298 .82500007 1.258 1.7744 2.1974 2.7034002 3.2514003 3.5494004 3.9204005 4.4264 4.8982 5.3212 5.8691999 6.2921998 6.6631996 7.1271998 7.3931996 7.8161995 8.4018 8.8348 9.2058 9.8531 10.286099 10.646099 10.944099 11.3151 11.8211 12.369101 12.875101 13.693101 13.959101 14.382101 14.815101 15.061101 15.307101 15.9873 16.2333 16.6663 17.0373 17.5013 18.1472 18.6742 19.2222 19.4682 19.891201 20.251202 20.8401 21.2731 22.042 22.308 23.126002 23.642003 24.148003 24.519003 24.817004 25.250004 25.798005 26.3223 26.6093 26.9803 27.413302 27.836302 28.134303 28.400303 28.906304 29.6785 30.1845 30.693299 30.991299 31.5183 32.1616 32.7096 33.1326 33.4306 34.113599 34.6196 34.990598">thatcontrolenergiesareastronomicallylargeunlessanimportantfractionofthenetwork</tspan><tspan y="14.303499" x="0 .54800006 1.0540001 1.5810001 2.0040003 2.5851">nodes(</tspan></text>
<text xml:space="preserve" transform="matrix(10 0 -0 10 200.012 377.291)" font-size="1" font-family="Mathematical Pi LT Std"><tspan y="14.303499" x="2.9241">&#x2273;</tspan></text>
<text xml:space="preserve" transform="matrix(10 0 -0 10 200.012 377.291)" font-size="1" font-family="MinionPro-Regular"><tspan y="14.303499" x="3.9798 4.4548 4.9298 5.6858 6.2475 6.6805 7.0515 7.6988 8.2258009 8.5858 9.0088009 9.7567009 10.1897 10.771501 11.298501 11.669501 11.935501 12.389502 12.812502 13.407701 13.955701 14.4617 14.988701 15.411701 15.771701 16.2197 16.9857 17.4087 17.779702 18.202702 18.6518 19.3348 19.9784 20.3494 20.7724 21.2884 21.5344 21.800402 22.223402 22.656403 22.954403 23.606699 24.2167 24.961699 25.384699 25.902798 26.335799 26.581799 26.806799 27.0208 27.603598 27.890599 28.156599 28.7046 29.2316 29.4976 30.0456 30.509602 31.101498 31.784499 32.0505 32.3485 33.0971 33.6651 34.5484 34.9714 35.4774 36.025403">20%)areusedasdrivernodes.Here,wereplicateTuetal.&#x2019;sfindingswithECcon-</tspan><tspan y="15.601699" x="0 .298 .669 1.1750001 1.4210001 1.6670002 2.1000002 2.6060003 2.8720003 3.1180003 3.3840004 3.6820005 4.1360008 4.5864 4.9464 5.4734 5.9794 6.6624004 6.9284 7.4764 8.1693 8.4673 8.994301 9.4273 9.9438 10.6268 11.1538 11.6598 11.9058 12.3288 12.678801 13.184801 13.555801 13.988801 14.254801 15.0348 15.4578 15.9638 16.5118 16.809802 17.180802 17.686802 18.152899 18.4189 19.2369 19.752902 19.998902 20.264903 20.687903 21.2767 21.6997 22.1637 22.5867 23.0097 23.432702 23.959702 24.225703 24.773703 25.237704 25.483704 26.163599 26.6906 26.9566 27.4206 28.176199 28.5992 29.1052 29.6532 29.9512 30.3222 30.828202 31.294199 31.7172 32.265199 32.688199 33.059198 33.523199 33.789197 34.212198 34.7978 35.3248 35.8728 36.118799 36.541799 36.9018">trollability,showingthatwhole-braincontrolimpliesexceedinglyhighcontrolenergiesunless</tspan><tspan y="16.9" x="0 .47500003 .95000007 1.4660001 1.9410001 2.4160002 3.3958 3.9018002 4.4106 4.7086 5.2356 5.879 6.427 6.933 7.46 7.883 8.4698 8.9028 9.2738 9.9155 10.4425 10.8025 11.2255 11.979099 12.412099 12.993899 13.5209 13.8919 14.1579 14.6119 15.034901 15.624399 16.1724 16.6784 17.2054 17.6284 18.2153">15&#x2013;20%ofthenodesareusedasdrivernodes(</tspan></text>
<text fill="#3c65ad" xml:space="preserve" transform="matrix(10 0 -0 10 200.012 377.291)" font-size="1" font-family="MinionPro-Regular"><tspan y="16.9" x="18.5543 19.0813 19.347302 20.035099 20.5101">Fig1A</tspan></text>
<text xml:space="preserve" transform="matrix(10 0 -0 10 200.012 377.291)" font-size="1" font-family="MinionPro-Regular"><tspan y="16.9" x="21.1931 21.5321 21.979699 22.318699 23.090798 23.377799 23.810799 24.233799 24.5318 24.978697 25.505698 26.032698 26.496699 27.144297 27.567297 28.073298 28.621298 28.919299 29.290299 29.796299 30.262396 30.685397 31.233397 31.656397 32.027399 32.491399 32.757398 33.180398 33.765996 34.125997 34.652997 35.158998 35.685998 35.931997">).Infact,hugecontrolenergiesshould</tspan><tspan y="18.1983" x="-.0000038146974 .5059962 1.1507962 1.5737962 2.0377963 2.5537964 2.9767965 3.3997966 3.6977967 4.1207969 4.8697965 5.5527966 6.0797965 6.502796 7.050796 7.473796 7.927796 8.350796 8.945996 9.243997 9.770997 10.419996 10.790997 11.223996 11.5219969 11.787996 12.517696 13.023697 13.446697 13.744698 14.427697 14.8506979 15.273698 16.043896 16.591897 17.118897 17.936898 18.442898 18.865899 19.462496 19.968497 20.477295 21.004296 21.375296 21.641297 22.095297 22.518298 23.113495 23.661496 24.167496 24.694497 25.117497 25.698695 26.131695 26.679696 27.433495 27.731495 28.258496 28.901795 29.449795 29.976796 30.794796 31.300797 31.723797 32.320398 32.826398 33.335199 33.633199 34.066198 34.437196 34.901197 35.324197">beexpectedwhenevertheratiobetweennumberofdrivernodesandthenumberoftarget</tspan><tspan y="19.5022" x="-.0000038146974 .5479962 1.0539963 1.5809963 2.0039964 2.5850962 2.8510962 3.435496 3.795496 4.613496 5.046496 5.2924959 5.5384957 5.9866964 6.252696 6.623696 6.9946959 7.4176957 7.7776958 8.293695 8.716696 9.139696 9.437696 9.703696 10.157697 10.811196 11.317196 11.825996 12.352997 12.775997 13.0739979 13.506997 13.772997 14.018997 14.603996 15.109997 15.618696 15.916697 16.443697 17.087098 17.447098 17.901099 18.261099 18.5591 18.9821 20.023798 20.529799 21.123599 21.941599 22.4476 22.9746 23.3976 23.867499 24.300499 24.819998 25.346999 25.779999 26.328 26.855 27.303097 27.642098 28.190098 28.717099 29.140099 29.563099 30.0901 30.540198 30.838198 31.365199 32.0086 32.4316 32.9376 33.4856 33.7836 34.1546 34.6606">nodesissmall,irrespectiveofdetailsofthesystemormodelathand.Indeed,thecontrol</tspan><tspan y="20.8004" x="0 .423 .9710001 1.394 1.7650001 2.229 2.9083 3.2683 3.6913002 4.1243 4.3703 4.7932999 5.3744 5.7134006 6.0844 6.5904 7.1174 7.5814006 8.1084 8.354401 8.808401 9.3769 9.7999 10.2639 10.7799 11.2859 11.8339 12.256901 12.804901 13.102901 13.368901 13.801901 14.047901 14.293901 14.9725 15.655499 15.921499 16.2195 16.9737 17.2717 17.7987 18.442 18.99 19.517 20.335001 20.841002 21.264002 21.8606 22.3666 22.875399 23.173399 23.6064 23.9774 24.4414 24.8644 25.386898 25.934899 26.440899 26.9679 27.3909 27.972098 28.270098 28.998198 29.504199 30.149098 30.572098 31.078099 31.626099 31.924099 32.295099 32.801099 33.047098 33.293096 33.716096 34.468999">energyscales(roughly)exponentiallywiththenumberoftargetnodestobecontrolled(</tspan></text>
<text fill="#3c65ad" xml:space="preserve" transform="matrix(10 0 -0 10 200.012 377.291)" font-size="1" font-family="MinionPro-Regular"><tspan y="20.8004" x="34.808 35.335 35.600999">Fig</tspan><tspan y="22.0987" x="-.0000038146974 .4749962">1C</tspan></text>
<text xml:space="preserve" transform="matrix(10 0 -0 10 200.012 377.291)" font-size="1" font-family="MinionPro-Regular"><tspan y="22.0987" x="1.1369963 1.4759963">).</tspan></text>
<text xml:space="preserve" transform="matrix(11.9999 0 -0 11.9999 200.012 627.024)" font-size="1" font-family="MinionPro-Bold" font-weight="bold"><tspan y="0" x="0 .6417 1.1064 1.5091 1.9948 2.4285 2.9858 3.4095002 3.9262002 4.4849 4.8246 5.2273 5.7440006 6.0217006 6.2994005 6.7641007 7.2918007 7.5795009 7.8572008 8.1449 8.4846 9.1748 9.6915 10.2425999 10.7703 11.173 11.6377 11.9254 12.7039999 13.262699 13.696399 14.0360989 14.719798 15.236498 15.639198 16.145899">Targetcontrollabilityofbrainnetworks</tspan></text>
<text xml:space="preserve" transform="matrix(10 0 -0 10 200.012 643.975)" font-size="1" font-family="MinionPro-Regular"><tspan y="0" x="0 .662 1.189 1.5600001 1.9310001 2.354 2.9020003 3.2000004 3.4460004 4.1215 4.5545 5.0085 5.4415 5.7075 5.9535 6.3865 6.8925 7.1384999 7.7895 8.087501 8.510501 8.933501 9.460502 10.008502 10.274502 10.780502 11.307503 11.730503 12.3192009 12.6062 13.1122 13.7025 14.250501 14.7565 15.304501 15.654501 15.920501 16.4685 16.9225 17.355502 17.715502 17.981503 18.435503 19.0883 19.594302 19.965302 20.398303 20.664303 21.4354 21.7954 22.093401 22.359402 23.177403 23.704403 23.950404 24.383404 24.681405 24.947405 25.453406 26.001406 26.4584 26.818402 27.345402 27.768403 28.5163 28.9493 29.5311 29.8291 30.2001 30.6331 31.1811 31.541102 31.964102 32.335103 32.7681 33.3161 33.5821 34.0151 34.4917 35.3097 35.7427 36.2067">Currentlyavailabletechniquesfornon-invasivebrainstimulation,suchastranscranialmag-</tspan><tspan y="1.3039" x="0 .54800006 .9710001 1.269 1.5350001 2.1769 2.5369 2.8349002 3.1009002 3.9189003 4.4459006 4.6919004 5.1249005 5.4229 5.6889 6.1949 6.9730999 7.3121 7.9221 8.8131 9.2881 9.6271 10.0799 10.6069 11.3328 11.8808 12.386801 12.9088 13.3418 13.5878 13.8338 14.3398 15.2446 15.5316 16.0376 16.633502 16.993502 17.291502 17.557503 18.375504 18.902504 19.148505 19.581505 19.879506 20.145506 20.651507 21.4241 21.930102 22.4389 23.2569 23.783902 24.029902 24.327902 24.593903 25.109904 25.355904 26.0105 26.3705 26.636502 26.934502 27.357502 27.717503 28.1648 28.639801 28.937802 29.370802 29.918803 30.445803 30.878804 31.249804 32.0029 32.6129 33.5039 34.2026 34.635599 34.881597 35.127595 35.633596 36.316595">neticstimulation(TMS),donotallowforstimulationofmultiplesites.StandardTMSallows</tspan><tspan y="2.6021" x="0 .36 .658 .924 1.7420001 2.269 2.515 2.9480003 3.2460004 3.5120004 4.0180008 4.7961 5.3021 5.8109 6.3169004 6.8649 7.506 7.866 8.132 8.43 8.853001 9.3032 9.736199 10.2842 11.0323 11.4033 11.826301 12.249301 12.672301 13.220302 13.7422 14.1652 14.6292 15.1452 15.5682 15.9392 16.2052 17.023201 17.446202 17.994202 18.292202 18.878602 19.561602 19.827603 20.125603 20.8798 21.406802 21.933802 22.366803 22.835701 23.258702 23.764702 24.030703 24.496802 25.106802 25.997803 26.6965 27.056502 27.354502 27.620503 28.438504 28.965504 29.211504 29.644505 29.942505 30.208506 30.714507 31.4927 31.831702 32.2647 32.5107 32.8707 33.6016 34.0976 34.6456 35.1516 35.8346 36.6063 37.0393">stimulationofonesite,andrecentexperimentswithdualcoilTMSstimulation(alsoknownas</tspan><tspan y="3.9004" x="0 .423 .929 1.3000001 1.598 1.8640001 2.2870002 2.7930003 3.1430002 3.5660003 4.0720007 4.4430005 4.741 5.007 5.43 5.863 6.3382 6.8542006 7.2872006 7.5532004 7.9242 8.3472 9.0991 9.5321 9.892099 10.252099 10.758099 11.181099 11.447099 11.880098 12.178099 12.444098 12.898099 13.5494999 13.909499 14.2074999 14.473499 15.291499 15.8185 16.064499 16.4975 16.7955 17.0615 17.567502 18.3457">cortico-corticalpairedassociativestimulation[</tspan></text>
<text fill="#3c65ad" xml:space="preserve" transform="matrix(10 0 -0 10 200.012 643.975)" font-size="1" font-family="MinionPro-Regular"><tspan y="3.9004" x="18.6847 19.1597">22</tspan></text>
<text xml:space="preserve" transform="matrix(10 0 -0 10 200.012 643.975)" font-size="1" font-family="MinionPro-Regular"><tspan y="3.9004" x="19.6347">,</tspan></text>
<text fill="#3c65ad" xml:space="preserve" transform="matrix(10 0 -0 10 200.012 643.975)" font-size="1" font-family="MinionPro-Regular"><tspan y="3.9004" x="20.0805 20.5555">67</tspan></text>
<text xml:space="preserve" transform="matrix(10 0 -0 10 200.012 643.975)" font-size="1" font-family="MinionPro-Regular"><tspan y="3.9004" x="21.0305 21.369502 21.9343 22.3673 22.6133 22.8593 23.365302 24.27 24.630002 24.928002 25.194003 26.012003 26.539004 26.785004 27.218005 27.516005 27.782006 28.330006 29.0209 29.318902 30.001902 30.733002 31.156002 31.662003 32.033 32.331 32.597 33.02 33.453 33.9248 34.2848 34.5508 34.8488 35.2718 35.6318">])allowstimulatingtwocorticalsites.</tspan><tspan y="5.2043" x="0 .558 .929 1.4350001 1.9510001 2.4570003 2.8170005 3.2500005 3.4960006 4.0818 4.3798 5.1079 5.3739 6.1919 6.7079 6.9539 7.3768999 8.1949 8.6179 9.1659 9.6887 10.5067 11.0337 11.2797 11.577701 11.8437 12.193701 12.5537 12.8197 13.117701 13.770599 14.130599 14.428599 14.694599 15.512599 16.039599 16.285599 16.7186 17.0166 17.2826 17.7886 18.5668 18.9998 19.3708 20.0124 20.4354 20.9624 21.3334 21.704401 22.127402 22.675402 22.973402 23.219403 23.9015 24.428502 24.976502 25.503502 25.926503 26.5207 27.0477 27.470702 27.924702 28.347702 28.593703 29.099703 29.615704 30.433705 30.856705 31.404706 31.929202">Proposalstoimplementmulti-sitestimulationarecurrentlyunderdevelopment[</tspan></text>
<text fill="#3c65ad" xml:space="preserve" transform="matrix(10 0 -0 10 200.012 643.975)" font-size="1" font-family="MinionPro-Regular"><tspan y="5.2043" x="32.2682 32.7432">68</tspan></text>
<text xml:space="preserve" transform="matrix(10 0 -0 10 200.012 643.975)" font-size="1" font-family="MinionPro-Regular"><tspan y="5.2043" x="33.218198 33.557199 34.0041 34.5101 35.0371 35.557504 35.8445 36.350503 36.7215">],butfor-</tspan><tspan y="6.5025999" x=".0000038146974 .81800386 1.0840038 1.6110039 2.044004 2.550004 2.796004 3.4412039 3.739204 4.162204 4.5852038 5.1122038 5.6602036 5.9262034 6.349203 6.782203 7.2566039 7.7836039 8.049603 8.336603 8.623603 8.889603 9.312603 9.839603 10.085604 10.383604 10.649604 11.072604 11.661604 12.479604 13.006604 13.366604 13.889604 14.395603 15.0405039 15.400503 15.927504 16.298504 16.814505 17.247506 17.607506 17.967507 18.390507 19.145005 19.651005 20.074006 20.361006 20.867007 21.238007 21.883305 22.243306 22.541306 22.807307 23.625308 24.152308 24.398308 24.831309 25.129309 25.39531 25.90131 26.679505 27.185505 27.694304 28.512305 29.018305 29.389306 30.035704 30.333704 30.860705 31.293705 32.065305 32.717206 33.004205 33.427206 34.333005 34.693006 34.959005 35.257005 35.680006">midabletechnicaldifficultiesmustbesurpassedbeforestimulationofmorethanafewsites</tspan></text>
<path transform="matrix(1,0,0,-1,0,792)" d="M576 737.1H36V737.6H576" fill-rule="evenodd"/>
<g clip-path="url(#clip_1)">
<g clip-path="url(#clip_2)">
<g clip-path="url(#clip_3)">
<text fill="#030404" xml:space="preserve" transform="matrix(1 0 -0 1 34.9795 49.26599)" font-size="11" font-family="DJQZYU+Gotham-Medium"><tspan y="-3.025" x="0 7.073 13.167 22.187 28.952 31.977 39.6 48.675 57.947999 65.020999 73.073 78.936 86.361 93.214 96.425998 105.50099 113.91599 122.33099 128.865 131.89 139.557 142.76902 151.84401 157.938 167.013 175.032">PLOS COMPUTATIONAL BIOLOGY</tspan></text>
</g>
</g>
</g>
<g clip-path="url(#clip_4)">
<text xml:space="preserve" transform="matrix(7.9999 0 -0 7.9999 349.909 46.205018)" font-size="1" font-family="Helvetica"><tspan y="0" x="0 .71300008 1.2600001 1.8070002 2.0830003 2.4110003 2.9580003 3.1710003 3.3840004 3.5858 4.1328 4.8968 5.1728 5.7198 6.0478 6.5948 7.1418 7.6323006 8.1793 8.5073 9.0543 9.267301 10.0276 10.3556 10.9026 11.4496 11.6626009 12.2096 12.7566 13.464601 14.0116009 14.726101 15.273101 15.820101 16.0961 16.3091 17.1371 17.684102 18.106402 18.601403 19.148404 19.361403 19.908404 20.403405 20.679406 20.892405 21.439406 22.195403 22.742403 23.237103 23.450102 23.997103 24.544104 25.091105 25.582802 26.129803 26.676804 27.223805 27.770806">Controllingtargetbrainregionsbyoptimalselectionofinputnodes</tspan></text>
</g>
<path transform="matrix(1,0,0,-1,0,792)" d="M36 48.0002H576V47.5002H36" fill-rule="evenodd"/>
<path transform="matrix(1,0,0,-1,0,792)" d="M142.583 34.9228H295.824Z" fill="#3c65ad" fill-rule="evenodd"/>
<text xml:space="preserve" transform="matrix(7.9999 0 -0 7.9999 36 756)" font-size="1" font-family="Helvetica"><tspan y="0" x="0 .661 1.2080001 1.9840001 2.8559 3.5689 4.1159 4.9439 5.4909 6.0379 6.3139 6.8609 7.1369 7.3499 7.8968999 8.4439 8.9788 9.411 10.0720009 10.285001 10.832001 11.045001 11.592001 12.139001 12.848101">PLOSComputationalBiology|</tspan></text>
<text fill="#3c65ad" xml:space="preserve" transform="matrix(7.9999 0 -0 7.9999 36 756)" font-size="1" font-family="Helvetica"><tspan y="0" x="13.322901 13.869901 14.145901 14.421901 14.968901 15.463901 15.739901 16.001702 16.277703 16.824704 17.371705 17.584704 17.860703 18.407704 18.735703 19.282704 19.558705 20.105706 20.652707 20.928708 21.475708 22.0111 22.558102 23.105103 23.381104 23.594103 24.141104 24.688105 25.016104 25.563105 26.110106 26.323105 26.599106 27.1277 27.622702 28.169703 28.382702 28.658703 29.205704 29.752705 30.299706 30.846707 31.393708 31.940709">https://doi.org/10.1371/journal.pcbi.1011274</tspan></text>
<text xml:space="preserve" transform="matrix(7.9999 0 -0 7.9999 36 756)" font-size="1" font-family="Helvetica"><tspan y="0" x="33.4774 33.9724 34.5194 35.066404 35.613405 36.160406 36.488405 37.190805 37.737806 38.284807 38.778203 39.325204 39.872205 40.419206 64.602008 65.149 65.906009 66.40201 66.949008">January12,202419/30</tspan></text>
</svg>
